<svg id="Layer_1" 
    xmlns="http://www.w3.org/2000/svg" viewBox="0 0 2500 1084.5">
    <style>
    .st0,.st1{fill-rule:evenodd;clip-rule:evenodd;fill:#fff}.st1{fill:#425e99}
    </style>
    <path class="st0" d="M0-709.2h2500v2500H0v-2500z"/>
    <path class="st1" d="M1247.7 999.4c669.8 0 1212.9-205 1212.9-458.5S1917.5 81.5 1247.7 81.5C577.2 81.5 34.1 287.3 34.1 540.8c0 253.6 543.1 458.6 1213.6 458.6z"/>
    <path class="st0" d="M1247.7 952.4C604.5 952.4 81.8 769.3 81.8 540.8c0-227.7 522.7-413.2 1165.9-413.2 644.8 0 1166.7 185.5 1166.7 413.2 0 228.5-521.9 411.6-1166.7 411.6z"/>
    <path class="st1" d="M1247.7 920.3c623.6 0 1129.9-169.8 1129.9-379.5 0-208.9-506.2-378.7-1129.9-378.7-624.4 0-1129.1 169.8-1129.1 378.7 0 209.7 504.7 379.5 1129.1 379.5z"/>
    <path class="st0" d="M1543.5 616.7c53.2-50.1 82.9-102.5 159.6-101.7 46.2.8 57.9 37.6 65.7 53.2l100.9-170.6h61.8l-167.4 296.6c-3.1 6.3-11 18-10.2 27.4 1.6 14.9 20.4 11 13.3 11 33.6-1.6 95.4-65.7 110.3-81.4 3.1-3.9 8.6-11 11.7-11 3.1 0 9.4 3.1 9.4 7.8 0 3.1-7 14.9-12.5 21.9-31.3 39.1-82.9 99.4-141.6 100.9-28.9 0-39.9-11.7-43.8-34.4-13.3 11.7-58.7 32.1-104.8 32.1-38.4-.8-54-23.5-61.8-41.5-7-14.9-10.2-36.8-4.7-58.7-21.1 11-40.7 12.5-68.9 11.7-32.9-.8-53.2-15.7-63.4-54-37.6 68.9-39.1 71.2-77.5 143.2h-66.5l85.3-144.8c11-19.6 16.4-35.2 20.3-51.6 2.4-9.4-4.7-18-14.9-18.8-10.9 0-28.9 11-46.2 27.4 0 0-43.8 47-75.9 94.7-30.5 45.4-82.9 97-140.1 97-41.5 0-79-22.7-86.9-66.5 0 0-3.9 10.2-40.7 31.3-3.1 1.6-10.9 6.3-13.3 4.7-7.1-6.3-11-14.1-11.8-19.6 2.3.8 7-3.1 21.9-14.9C979.7 686.2 986 669 986 669c7-14.9 19.6-38.3 28.2-54.8 23.5-47 64.2-94.7 130.7-97 11 0 14.1 4.7 16.4 8.6 6.3 4.7 3.9 14.1 3.9 14.1-47 7-79 34.4-98.6 61-11.7 17.2-24.3 45.4-26.6 65.7-4.7 35.2 11.7 58.7 36 64.2 45.4 7 82.9-25.8 112.7-76.7 7.8-13.3 13.3-47.7 13.3-66.5 0-18.8-10.2-38.3-18-46.2 0-13.3 8.6-21.9 18.8-21.9 3.1 0 6.3 0 9.4 3.1 15.7 15.7 24.3 45.4 24.3 68.1 0 7.8 0 15.7-1.6 23.5 32.9-39.9 74.3-91.6 106.4-101.7 6.3-3.1 12.5-3.1 18.8-3.1 58.7-1.6 50.9 51.6 50.9 51.6 31.3-36 53.2-49.3 82.2-47.7 31.3 1.6 42.3 23.5 42.3 40.7-.8 20.3-15.6 43.8-41.4 44.6-22.7 0-36-11-43.1-31.3-14.9 5.5-21.9 15.7-25 36-4.7 25.8 14.9 46.2 39.9 46.2 43.2.1 62-18.7 77.6-32.8zm47-337.2c0 25-87.6 72.8-162 72.8-115.8 0-236.3-55.6-291.8-68.1-60.3-14.1-115-25.8-158.1-25.8-151 0-218.3 65-215.2 124.4 1.6 24.3 21.1 39.9 50.1 34.4 31.3-5.5 75.1-35.2 86.1-61 2.3-5.5 8.6-6.3 11-4.7 4.7 3.9 3.1 9.4 3.1 9.4-3.9 30.5-50.9 115-132.2 115-45.4 0-75.9-42.3-75.1-83.7.8-77.5 79.8-155.7 274.6-155.7 36.8 0 78.2 3.1 123.6 11 52.4 9.4 183.1 31.3 289.5 32.9 39.1 0 89.2 1.6 129.9-4.7 43-7 33.6-8.6 50.9-8.6 15.6-.2 15.6 6.1 15.6 12.4z"/>
    <path class="st1" d="M1706.3 551.8c-27.4-3.1-61.8 20.3-90 54.8-14.1 17.2-28.9 50.1-31.3 69.6-3.1 19.6 2.4 39.1 9.4 44.6s38.4 21.9 86.9-27.4c27.4-27.4 54-72 54-72l-8.6-2.4c16.3-30.4 13.2-63.3-20.4-67.2z"/>
    <path class="st0" d="M1134.3 459.4c0 8.6 11.7 15.7 21.9 16.4-2.3 8.6-1.6 12.5-5.5 11.7-23.5 0-32.9-22.7-32.9-22.7-31.3 5.5-61.8 9.4-123.6 15.7C838.5 732.6 790 774 694.5 774c-68.1 0-128.3-44.6-129.9-124.4-.8-48.5 38.3-108 111.1-126 8.6 0 11.7 3.1 11.7 7.8 0 3.1-3.1 7-10.2 10.2-21.1 7.8-57.9 49.3-57.9 87.6 0 28.9 18 61 48.5 68.1 8.6 2.4 16.4 1.6 24.3 1.6 75.9 0 161.2-85.3 253.5-215.2-14.9.8-78.2 7.8-93.9 25.8-7 5.5-11.7 2.3-13.3-3.9 0-1.6 2.3-7 4.7-10.2 25-28.2 100.2-34.4 118.1-36.8 70.4-108 161.2-175.3 180-174.5 3.1 0 10.2 4.7 7 12.5-.8 1.6-8.6 10.2-11.7 12.5-15.7 14.1-68.9 48.5-126.8 146.3 47-2.3 101.7-11.7 101.7-11.7s-3.1-10.2-3.1-18.8c2.3-33.6 21.9-54 47-50.1 14.1 2.3 23.5 14.1 23.5 26.6 0 13.3-10.2 32.9-20.3 42.3-7 5.6-14.8 11.1-24.2 15.7z"/>
    <path class="st1" d="M1130.4 442.2s7.8.8 19.6-12.5c4.7-4.7 12.5-18.8 11-28.2-.8-4.7-3.1-10.2-8.6-9.4-11.8 2.4-18.8 7.8-21.9 19.6-4.1 12.5-2.5 21.1-.1 30.5z"/>
</svg>