<?xml version="1.0" standalone="no"?>
<!DOCTYPE svg PUBLIC "-//W3C//DTD SVG 20010904//EN"
 "http://www.w3.org/TR/2001/REC-SVG-20010904/DTD/svg10.dtd">
<svg version="1.0" xmlns="http://www.w3.org/2000/svg"
 width="480.000000pt" height="480.000000pt" viewBox="0 0 480.000000 480.000000"
 preserveAspectRatio="xMidYMid meet">
<metadata>
Created by potrace 1.11, written by Peter Selinger 2001-2013
</metadata>
<g transform="translate(0.000000,480.000000) scale(0.100000,-0.100000)"
fill="#000000" stroke="none">
<path d="M2195 4494 c-308 -44 -493 -98 -720 -211 -411 -205 -738 -535 -940
-948 -585 -1198 97 -2630 1399 -2935 200 -48 514 -65 716 -40 528 66 1008 327
1348 735 426 510 581 1198 416 1847 -180 711 -735 1279 -1448 1483 -181 51
-296 67 -526 70 -118 2 -228 1 -245 -1z m375 -244 c462 -48 878 -257 1188
-596 39 -43 72 -84 72 -90 0 -20 -81 -104 -149 -156 -83 -62 -185 -112 -287
-139 -110 -29 -287 -29 -399 0 -223 58 -415 210 -519 411 -56 107 -85 209 -93
325 -5 80 8 223 23 246 7 11 46 11 164 -1z m-425 -182 c0 -150 3 -185 24 -262
46 -176 133 -339 250 -468 120 -133 326 -254 516 -305 88 -23 119 -26 260 -26
140 0 172 3 257 26 178 47 334 134 461 255 37 36 69 63 71 61 16 -16 91 -171
122 -249 59 -155 107 -338 116 -445 l3 -40 -40 5 c-22 3 -110 5 -195 4 -136 0
-168 -4 -260 -28 -192 -51 -372 -130 -552 -244 -187 -118 -339 -191 -458 -218
-229 -54 -562 -30 -952 68 l-168 42 0 165 0 166 83 -83 c45 -45 87 -82 92 -82
6 0 47 37 93 83 l82 82 -175 175 -175 175 0 125 0 125 88 -88 87 -87 85 85 85
85 -235 235 -235 235 -235 -235 -234 -235 39 -41 c22 -22 62 -59 88 -81 l48
-41 82 81 c46 45 86 82 90 82 4 0 7 -55 7 -122 l0 -123 -175 -175 -175 -175
85 -85 85 -85 83 83 c45 45 86 82 90 82 4 0 7 -67 7 -149 l0 -149 -62 -7
c-210 -22 -422 -112 -602 -255 l-75 -60 -11 38 c-33 121 -44 223 -45 427 0
224 7 283 55 471 89 346 287 669 555 906 234 207 541 363 842 428 142 30 128
47 128 -152z m2048 -1698 c37 -11 37 -11 37 -64 0 -175 -129 -420 -288 -548
-180 -145 -452 -225 -671 -199 -192 24 -337 73 -614 209 l-179 87 134 17 c73
9 174 28 223 43 111 32 316 132 453 219 209 134 408 216 598 246 72 11 255 5
307 -10z m-2562 -383 c134 -40 310 -120 541 -244 610 -328 851 -418 1138 -430
74 -3 162 0 195 5 33 5 61 9 63 7 8 -8 -209 -122 -308 -162 -189 -77 -341 -98
-500 -69 -149 27 -279 83 -535 231 -276 160 -386 206 -526 223 -153 19 -324
-23 -458 -113 -70 -46 -165 -140 -198 -195 -9 -16 -20 -30 -24 -30 -10 0 -119
143 -171 225 -25 39 -67 112 -93 164 l-47 94 39 39 c106 110 304 228 450 269
101 28 315 21 434 -14z m91 -696 c84 -22 191 -73 407 -196 358 -203 525 -259
771 -259 194 0 368 50 613 177 67 34 126 64 132 66 30 12 -134 -120 -224 -180
-546 -368 -1228 -418 -1821 -133 -111 53 -298 172 -369 233 l-34 30 27 45 c75
128 244 230 392 235 17 1 65 -8 106 -18z"/>
</g>
</svg>
