<?xml version="1.0" standalone="no"?>
<!DOCTYPE svg PUBLIC "-//W3C//DTD SVG 20010904//EN"
 "http://www.w3.org/TR/2001/REC-SVG-20010904/DTD/svg10.dtd">
<svg version="1.0" xmlns="http://www.w3.org/2000/svg"
 width="700.000000pt" height="700.000000pt" viewBox="0 0 700.000000 700.000000"
 preserveAspectRatio="xMidYMid meet">
<metadata>
Created by potrace 1.11, written by Peter Selinger 2001-2013
</metadata>
<g transform="translate(0.000000,700.000000) scale(0.100000,-0.100000)"
fill="#000000" stroke="none">
<path d="M253 5815 c-102 -31 -176 -96 -222 -195 l-26 -55 0 -1705 0 -1705 28
-60 c30 -64 93 -136 142 -162 68 -35 117 -40 405 -41 157 -1 292 -1 300 -2 10
0 23 -26 39 -77 100 -333 396 -587 746 -642 62 -10 257 -7 310 4 107 22 211
61 300 113 67 40 62 36 128 91 141 118 272 328 303 485 2 10 5 21 8 23 3 4
1327 7 1536 4 35 -1 36 -1 59 -76 76 -245 246 -444 478 -559 142 -70 265 -96
437 -91 67 2 128 6 136 8 8 2 29 7 45 11 331 83 594 331 681 645 10 34 22 61
28 62 6 0 139 0 295 1 200 0 296 5 326 14 123 37 204 116 239 233 23 77 24
1720 1 1794 -14 46 -58 133 -140 277 -21 36 -47 83 -59 105 -13 22 -61 108
-108 190 -47 83 -96 170 -110 195 -29 52 -359 637 -406 720 -17 30 -57 102
-89 159 -81 146 -125 187 -256 240 -44 17 -5497 14 -5554 -4z"/>
</g>
</svg>
